<?xml version="1.0" standalone="no"?>
<!DOCTYPE svg PUBLIC "-//W3C//DTD SVG 1.1//EN" "http://www.w3.org/Graphics/SVG/1.1/DTD/svg11.dtd" >
<svg xmlns="http://www.w3.org/2000/svg" xmlns:xlink="http://www.w3.org/1999/xlink" version="1.1">
<metadata></metadata>
<defs>
<font id="boxleyuploaded_file" horiz-adv-x="1257" >
<font-face units-per-em="2048" ascent="1636" descent="-412" />
<missing-glyph horiz-adv-x="532" />
<glyph horiz-adv-x="0" />
<glyph unicode="&#xd;" horiz-adv-x="681" />
<glyph unicode=" "  horiz-adv-x="532" />
<glyph unicode="&#x09;" horiz-adv-x="532" />
<glyph unicode="&#xa0;" horiz-adv-x="532" />
<glyph unicode="!" horiz-adv-x="516" d="M145 0v219h226v-219h-226zM160 1120v244h192v-244l-22 -758h-148z" />
<glyph unicode="&#x22;" horiz-adv-x="870" d="M170 1364h186l-20 -510h-152zM514 1364h186l-16 -510h-154z" />
<glyph unicode="#" horiz-adv-x="1265" d="M94 406v137h238l53 297h-287v135h314l69 389h148l-70 -389h254l72 389h147l-71 -389h208v-135h-233l-55 -297h284v-137h-309l-76 -406h-147l76 406h-256l-74 -406h-148l74 406h-211zM479 543h254l55 297h-256z" />
<glyph unicode="$" horiz-adv-x="1265" d="M94 45v160q262 -47 455 -55v503l-57 19q-227 70 -312.5 147.5t-85.5 204.5q0 309 455 342v141h151v-139q182 -2 394 -37v-162q-240 39 -394 45v-440l62 -18q219 -68 312 -156t93 -225q0 -342 -467 -377v-148h-151v148q-170 2 -455 47zM260 1030q0 -72 59.5 -117 t229.5 -96v395q-168 -6 -228.5 -53t-60.5 -129zM700 152q164 10 232.5 71.5t68.5 143.5q0 84 -60 136t-241 107v-458z" />
<glyph unicode="%" horiz-adv-x="1976" d="M94 1022q0 180 88 273.5t289 93.5q199 0 287 -93.5t88 -273.5t-88 -272.5t-287 -92.5t-288 92.5t-89 272.5zM244 1022q0 -115 50 -173t177 -58t177 58t50 173q0 117 -50 175t-177 58t-177 -58t-50 -175zM424 -14l944 1378h178l-944 -1378h-178zM1126 340 q0 180 88.5 273.5t288.5 93.5q199 0 287 -93.5t88 -273.5t-88 -272.5t-287 -92.5q-201 0 -289 92.5t-88 272.5zM1276 340q0 -115 49 -173t176 -58t177.5 58t50.5 173q0 117 -50.5 175t-177.5 58t-176 -58t-49 -175z" />
<glyph unicode="&#x26;" horiz-adv-x="1609" d="M117 391q0 319 368 367q-156 150 -155 305q0 326 467 326q168 0 319 -33v-160q-154 35 -313 35q-156 0 -219.5 -41t-63.5 -127q0 -61 36 -122.5t140 -152.5l535 -469q61 131 61 379v23h178v-25q0 -340 -110 -489l237 -207h-256l-106 90q-184 -115 -516 -115 q-309 0 -455.5 115t-146.5 301zM305 397q0 -131 96.5 -198.5t321.5 -67.5q219 0 391 72l-502 436q-145 -2 -226 -63.5t-81 -178.5z" />
<glyph unicode="'" horiz-adv-x="481" d="M147 1364h187l-21 -510h-151z" />
<glyph unicode="(" horiz-adv-x="731" d="M121 492v59q0 139 10 249.5t42 223.5t84 188.5t141 124.5t210 52v-148q-168 -6 -238.5 -181t-70.5 -509v-62q0 -336 70.5 -510t238.5 -178v-147q-121 2 -210 50t-141 125t-84 189.5t-42 224.5t-10 249z" />
<glyph unicode=")" horiz-adv-x="731" d="M123 -199q168 6 238.5 181.5t70.5 509.5v61q0 336 -70.5 510t-238.5 178v148q121 -2 210 -50.5t141 -125t84 -189.5t42 -224.5t10 -248.5v-59q0 -139 -10 -250t-42 -223.5t-84 -188.5t-141 -125t-210 -51v147z" />
<glyph unicode="*" horiz-adv-x="776" d="M78 948l209 109l-207 110l59 105l197 -125l-8 239h121l-9 -241l197 127l61 -105l-209 -110l207 -109l-59 -102l-197 121l9 -240h-121l8 240q-4 -2 -100 -62l-97 -59z" />
<glyph unicode="+" horiz-adv-x="1300" d="M145 451v151h424v451h162v-451h424v-151h-424v-451h-162v451h-424z" />
<glyph unicode="," horiz-adv-x="509" d="M102 -330l97 549h196l-137 -549h-156z" />
<glyph unicode="-" horiz-adv-x="839" d="M176 451v167h488v-167h-488z" />
<glyph unicode="." horiz-adv-x="509" d="M141 0v219h226v-219h-226z" />
<glyph unicode="/" horiz-adv-x="917" d="M-33 -217l731 1626h172l-733 -1626h-170z" />
<glyph unicode="0" horiz-adv-x="1357" d="M115 682q0 391 118.5 549t444.5 158q328 0 445.5 -158t117.5 -549t-117.5 -549t-445.5 -158q-326 0 -444.5 158t-118.5 549zM301 682q0 -229 34 -345t111.5 -161t231.5 -45q156 0 232.5 45t110.5 161t34 345t-34 345t-110.5 161t-232.5 45q-154 0 -231.5 -45t-111.5 -161 t-34 -345z" />
<glyph unicode="1" horiz-adv-x="1058" d="M82 0v160h358v1046l-340 -26v155l521 45v-1220h360v-160h-899z" />
<glyph unicode="2" horiz-adv-x="1216" d="M104 0v51q0 221 72 330q76 119 346 276l80 48q178 104 241.5 168.5t63.5 160.5q0 199 -315 199q-186 0 -463 -59v157q242 57 469 58q238 0 366 -90.5t128 -262.5q0 -125 -78 -228t-291 -224l-90 -52q-209 -119 -275.5 -197.5t-66.5 -174.5h817v-160h-1004z" />
<glyph unicode="3" horiz-adv-x="1216" d="M100 33v160q279 -61 484 -62q180 0 260 58.5t80 189.5q0 150 -82 203q-70 49 -258 49h-230v157h230q115 0 173 16.5t95 61.5q39 51 39 156q0 123 -84 167t-236 44q-182 0 -426 -51v161q240 45 437 46q100 0 180 -14.5t154.5 -51.5t116.5 -113.5t42 -187.5 q0 -106 -47 -187t-133 -116q213 -78 213 -340q0 -205 -139.5 -304.5t-393.5 -99.5q-233 0 -475 58z" />
<glyph unicode="4" horiz-adv-x="1294" d="M98 311v217l566 836h221l-625 -897h582v369h178v-369h174v-156h-174v-311h-180v311h-742z" />
<glyph unicode="5" horiz-adv-x="1232" d="M127 25v159q246 -53 453 -53q188 0 270 65.5t82 219.5q0 84 -24.5 138t-77 79.5t-109.5 34t-148 8.5q-84 0 -179 -4t-160.5 -9.5t-75.5 -5.5v707h893v-158h-715v-385q164 8 242 8q276 0 407 -95t131 -316q0 -442 -524 -443q-221 0 -465 50z" />
<glyph unicode="6" horiz-adv-x="1302" d="M135 639q0 401 127 573q131 176 457 177q186 0 377 -46v-157q-185 47 -369 47q-211 0 -300 -82t-105 -328q227 55 399 56q238 0 353.5 -99.5t115.5 -314.5q0 -240 -131 -365t-387 -125q-281 0 -409 150.5t-128 513.5zM315 639q0 -283 78 -395.5t283 -112.5q174 0 254 80 t80 244q0 150 -74 213t-236 63q-166 0 -385 -53v-39z" />
<glyph unicode="7" horiz-adv-x="1247" d="M72 1204v160h1081v-174l-801 -1190h-213l815 1204h-882z" />
<glyph unicode="8" horiz-adv-x="1286" d="M109 381q0 256 221 334q-186 63 -187 303q0 371 500 371q498 0 498 -371q0 -244 -187 -303q221 -78 222 -334q0 -211 -123 -308.5t-410 -97.5q-281 0 -407.5 91.5t-126.5 314.5zM291 389q0 -139 76.5 -198.5t275.5 -59.5q201 0 275.5 58.5t74.5 199.5q0 119 -68.5 183.5 t-238.5 64.5h-92q-168 0 -235.5 -64.5t-67.5 -183.5zM324 1010q0 -106 57 -166t213 -60h92q160 0 217.5 59.5t57.5 166.5q0 223 -318 223q-319 0 -319 -223z" />
<glyph unicode="9" horiz-adv-x="1304" d="M115 899q0 240 131 365t387 125q281 0 408.5 -151t127.5 -513q0 -406 -125 -575q-129 -174 -458 -175q-184 0 -377 45v158q185 -47 369 -47q211 0 300 82t105 328q-227 -55 -399 -56q-238 0 -353.5 99.5t-115.5 314.5zM295 909q0 -150 73.5 -213t235.5 -63q166 0 385 53 v39q0 283 -77.5 395.5t-282.5 112.5q-174 0 -254 -80t-80 -244z" />
<glyph unicode=":" horiz-adv-x="509" d="M141 0v219h226v-219h-226zM141 633v219h226v-219h-226z" />
<glyph unicode=";" horiz-adv-x="509" d="M102 -330l97 549h196l-137 -549h-156zM162 633v219h225v-219h-225z" />
<glyph unicode="&#x3c;" horiz-adv-x="1300" d="M211 459v135l879 420v-166l-695 -318l695 -327v-164z" />
<glyph unicode="=" horiz-adv-x="1300" d="M178 252v149h942v-149h-942zM178 651v148h942v-148h-942z" />
<glyph unicode="&#x3e;" horiz-adv-x="1300" d="M211 39v164l694 327l-694 318v166l879 -420v-135z" />
<glyph unicode="?" horiz-adv-x="1138" d="M111 1188v153q244 47 424 48q487 0 487 -345q0 -102 -50.5 -175.5t-187.5 -151.5l-96 -55q-78 -45 -105.5 -91.5t-27.5 -148.5v-57h-170v88q0 158 66 233q47 53 135 100l65 35q109 59 148 107.5t39 113.5q0 96 -71 143.5t-232 47.5q-184 0 -424 -45zM365 0v219h225v-219 h-225z" />
<glyph unicode="@" horiz-adv-x="2107" d="M135 532q0 160 14.5 276t53.5 216t105.5 164.5t172 112t252 68t344.5 20.5q492 0 695 -170q201 -166 200 -631q0 -215 -51 -342t-131 -172t-199 -45q-74 0 -139 23.5t-94 58.5q-207 -78 -391 -78q-287 0 -365 252q-29 92 -29 231v16q0 82 11 148q53 334 383 334 q150 0 360 -64l6 54h162v-672q0 -82 16 -115q25 -47 91 -47q127 0 165 109q35 92 35 305q0 397 -141 522q-154 137 -584 137q-135 0 -238.5 -9t-183.5 -30.5t-136 -48.5t-95 -75t-62.5 -96t-36 -124t-16.5 -148.5t-4 -179.5q0 -227 31 -361t121 -220t232 -117t384 -31 q389 0 668 70v-156q-252 -59 -668 -59q-281 0 -461 46t-286.5 155.5t-148.5 268.5t-42 404zM750 518q0 -117 20 -180q49 -160 223 -160q182 0 324 62v569q-158 59 -311 59q-129 0 -189 -69q-39 -45 -55 -117q-12 -57 -12 -147v-17z" />
<glyph unicode="A" horiz-adv-x="1560" d="M55 0l598 1364h254l596 -1364h-213l-145 346h-735l-144 -346h-211zM471 502h612l-305 727z" />
<glyph unicode="B" horiz-adv-x="1482" d="M178 0v1364h670q219 0 313 -47q168 -82 168 -301q0 -123 -53 -198t-131 -101q109 -29 163 -118t54 -212q0 -156 -72 -250q-68 -86 -173 -111.5t-261 -25.5h-678zM371 160h483q104 0 163.5 11t94.5 50q55 63 55 176q0 106 -55 170q-59 63 -258 64h-483v-471zM371 780h481 q94 0 148.5 11.5t84.5 46.5q52 53 52 155q0 98 -52 152q-53 59 -233 59h-481v-424z" />
<glyph unicode="C" horiz-adv-x="1370" d="M123 680q0 203 29.5 331t109.5 216t216 125t351 37q236 0 422 -50v-163q-207 53 -417 53q-170 0 -267.5 -21.5t-155 -88t-75 -165t-17.5 -274.5q0 -141 12.5 -228t42 -154t90 -99.5t147 -48t223.5 -15.5q223 0 417 53v-163q-176 -49 -422 -50q-215 0 -351 36t-216 124 t-109.5 215t-29.5 330z" />
<glyph unicode="D" horiz-adv-x="1579" d="M178 0v1364h490q254 0 385 -31q227 -51 316 -204.5t89 -446.5t-89 -446.5t-316 -204.5q-131 -31 -385 -31h-490zM371 160h297q252 0 358 33q143 45 189.5 155.5t46.5 333.5t-46.5 333.5t-189.5 155.5q-106 33 -358 33h-297v-1044z" />
<glyph unicode="E" horiz-adv-x="1378" d="M178 0v1364h1082v-160h-889v-440h729v-160h-729v-444h889v-160h-1082z" />
<glyph unicode="F" horiz-adv-x="1316" d="M178 0v1364h1039v-160h-846v-461h753v-159h-753v-584h-193z" />
<glyph unicode="G" horiz-adv-x="1566" d="M121 682q0 199 27.5 321.5t106.5 215t220 131.5t365 39q121 0 267 -16.5t218 -35.5v-163q-217 55 -477 55q-121 0 -204 -9.5t-143.5 -37t-95 -63.5t-55 -103.5t-27 -142t-6.5 -191.5q0 -178 18.5 -278.5t79 -164t155 -84t264.5 -20.5q207 0 383 45v342h-457v160h643v-610 q-260 -96 -586 -97q-395 0 -545.5 149.5t-150.5 557.5z" />
<glyph unicode="H" horiz-adv-x="1613" d="M178 0v1364h193v-600h872v600h193v-1364h-193v604h-872v-604h-193z" />
<glyph unicode="I" horiz-adv-x="548" d="M178 0v1364h193v-1364h-193z" />
<glyph unicode="J" horiz-adv-x="1064" d="M84 12v160q197 -37 334 -37q156 0 214 58.5t70 162.5q7 51 7 207v801h192v-801q0 -293 -53 -393q-100 -195 -430 -195q-143 0 -334 37z" />
<glyph unicode="K" horiz-adv-x="1478" d="M178 0v1364h193v-670l782 670h258l-582 -481l611 -883h-234l-526 760l-309 -254v-506h-193z" />
<glyph unicode="L" horiz-adv-x="1280" d="M178 0v1364h193v-1204h807v-160h-1000z" />
<glyph unicode="M" horiz-adv-x="2025" d="M178 0v1364h303l529 -1190l530 1190h307v-1364h-194v1210l-541 -1210h-209l-538 1210v-1210h-187z" />
<glyph unicode="N" horiz-adv-x="1667" d="M178 0v1364h291l834 -1208v1208h184v-1364h-291l-831 1204v-1204h-187z" />
<glyph unicode="O" horiz-adv-x="1656" d="M121 682q0 203 29.5 331t109.5 216t216 124t353 36q215 0 351.5 -36t216.5 -124t109.5 -216t29.5 -331t-29.5 -331t-109.5 -216t-216.5 -124t-351.5 -36q-217 0 -353 36t-216 124t-109.5 216t-29.5 331zM317 682q0 -178 17.5 -275.5t75 -164t153.5 -87t266 -20.5 t265.5 20.5t153 86t74.5 164t17 276.5t-16 275.5t-73.5 164t-154 87t-266.5 20.5q-172 0 -268 -21.5t-153.5 -87t-74 -163t-16.5 -275.5z" />
<glyph unicode="P" horiz-adv-x="1443" d="M178 0v1364h641q216 0 316 -47q90 -39 143 -136.5t53 -224.5q0 -125 -52 -222t-144 -138q-100 -47 -316 -47h-448v-549h-193zM371 709h442q137 0 203 28q121 51 121 219q0 178 -121 224q-61 24 -192 24h-11h-442v-495z" />
<glyph unicode="Q" horiz-adv-x="1656" d="M121 682q0 203 29.5 331t109.5 216t216 124t353 36q215 0 351.5 -36t216.5 -124t109.5 -216t29.5 -331q0 -336 -98 -483l211 -199h-236l-92 82q-173 -107 -492 -107q-217 0 -353 36t-216 124t-109.5 216t-29.5 331zM317 682q0 -178 17.5 -275.5t75 -164t153.5 -87 t266 -20.5q262 0 371 62l-235 225h235l100 -100q39 111 39 360q0 178 -16 275.5t-73.5 164t-154 87t-266.5 20.5q-172 0 -268 -21.5t-153.5 -87t-74 -163t-16.5 -275.5z" />
<glyph unicode="R" horiz-adv-x="1511" d="M178 0v1364h676q250 0 354 -64q145 -90 146 -307q0 -127 -55.5 -225t-157.5 -127q86 -29 135 -106q39 -66 53 -232l8 -102q10 -156 17 -201h-195q-2 27 -14 195l-6 92q-10 168 -74 225t-246 57h-448v-569h-193zM371 723h483q176 0 233 41q72 49 72 211q0 137 -74 188 q-57 41 -231 41h-483v-481z" />
<glyph unicode="S" horiz-adv-x="1294" d="M657 1389q190 0 455 -39v-164q-248 43 -453 43q-207 0 -281.5 -48t-74.5 -139q0 -76 62.5 -122t234.5 -101l178 -57q174 -55 271 -123q133 -96 133 -279q0 -74 -27 -138t-86 -121.5t-171 -91.5t-265 -34q-236 0 -508 54v164q283 -57 510 -58q195 0 274.5 62.5t79.5 156.5 q0 90 -65.5 148.5t-247.5 113.5l-174 54q-172 53 -269 123q-120 87 -120 240q0 355 544 356z" />
<glyph unicode="T" horiz-adv-x="1388" d="M78 1204v160h1235v-160h-522v-1204h-193v1204h-520z" />
<glyph unicode="U" horiz-adv-x="1591" d="M178 522v842h193v-813q0 -137 16 -217t62 -123q76 -76 348 -76q250 0 329 66q53 43 74 124t21 226v813h192v-842q0 -332 -158 -448q-131 -98 -458 -99q-348 0 -480 109q-139 119 -139 438z" />
<glyph unicode="V" horiz-adv-x="1546" d="M51 1364h217l504 -1202l506 1202h217l-596 -1364h-264z" />
<glyph unicode="W" horiz-adv-x="2398" d="M68 1364h204l387 -1204l424 1204h238l418 -1204l387 1204h205l-457 -1364h-260l-418 1188l-416 -1188h-260z" />
<glyph unicode="X" horiz-adv-x="1509" d="M53 0l584 682l-571 682h243l451 -541l457 541h229l-578 -672l582 -692h-246l-456 549l-467 -549h-228z" />
<glyph unicode="Y" horiz-adv-x="1505" d="M31 1364h243l480 -635l491 635h230l-631 -801v-563h-193v563z" />
<glyph unicode="Z" horiz-adv-x="1415" d="M113 0v193l948 1009h-948v162h1165v-195l-956 -1009h981v-160h-1190z" />
<glyph unicode="[" horiz-adv-x="731" d="M145 -346v1728h476v-135h-299v-1454h301v-139h-478z" />
<glyph unicode="\" horiz-adv-x="929" d="M55 1409h170l729 -1626h-172z" />
<glyph unicode="]" horiz-adv-x="731" d="M109 -207h301v1454h-299v135h475v-1728h-477v139z" />
<glyph unicode="^" horiz-adv-x="1300" d="M174 633l393 731h162l395 -731h-182l-295 549l-295 -549h-178z" />
<glyph unicode="_" horiz-adv-x="1024" d="M0 -184h1024v-146h-1024v146z" />
<glyph unicode="`" horiz-adv-x="772" d="M168 1364h227l178 -238h-174z" />
<glyph unicode="a" horiz-adv-x="1204" d="M104 297q0 115 42 185.5t143 107.5q135 49 579 49q-2 137 -56 181t-206 44q-203 0 -379 -45v156q199 45 387 45q258 0 346.5 -94.5t88.5 -343.5v-279q0 -205 12 -303h-174q-6 27 -10 61q-216 -77 -405 -77h-5q-184 0 -273.5 83t-89.5 230zM287 305q0 -168 211 -168 q145 0 370 60v311q-88 0 -206 -4q-225 -8 -300 -50t-75 -149z" />
<glyph unicode="b" horiz-adv-x="1255" d="M154 0v1364h182v-412q211 68 364 68q244 0 345.5 -125t103.5 -377v-35q0 -244 -108.5 -371.5t-346.5 -127.5q-178 0 -368 63l-4 -47h-168zM336 190q168 -51 315 -51q174 0 245 84t71 266v29q0 176 -62.5 261t-236.5 85q-144 0 -332 -59v-615z" />
<glyph unicode="c" horiz-adv-x="1075" d="M109 501.5q0 274.5 112.5 396.5t401.5 122q170 0 352 -47v-156q-182 47 -348 47q-195 0 -265.5 -76.5t-70.5 -285.5t70.5 -286t265.5 -77q158 0 348 49v-157q-182 -47 -352 -47q-289 0 -401.5 121.5t-112.5 396z" />
<glyph unicode="d" d="M109 485v31q0 260 113.5 382t361.5 122q141 0 338 -41v385h182v-1364h-166l-8 63q-220 -79 -379 -79h-4q-238 0 -338 126.5t-100 374.5zM289 485q0 -176 63.5 -261t237.5 -85q135 0 332 66v620q-180 39 -318 39q-176 0 -244.5 -79.5t-70.5 -268.5v-31z" />
<glyph unicode="e" horiz-adv-x="1206" d="M109 489v11q0 266 122.5 393t380.5 127q262 0 378 -116t116 -384v-37h-819q0 -117 23.5 -188.5t78.5 -104t109.5 -42t150.5 -9.5q158 0 414 56v-156q-227 -55 -418 -55q-98 0 -168.5 9t-145.5 38.5t-120 84t-73.5 148.5t-28.5 225zM293 621h625q-1 243 -304 243 q-170 0 -238.5 -62.5t-82.5 -180.5z" />
<glyph unicode="f" horiz-adv-x="819" d="M78 854v150h188v69q0 174 81 237.5t255 63.5q96 0 219 -18v-148q-106 14 -211 15q-96 0 -130 -33t-34 -127v-59h375v-150h-375v-854h-180v854h-188z" />
<glyph unicode="g" d="M109 524v8q0 252 108.5 370t357.5 118q172 0 357 -62l6 46h166v-900q0 -246 -108.5 -348t-381.5 -102q-193 0 -362 45v158q186 -49 358 -50q188 0 250 62.5t62 220.5v27q-190 -63 -357 -64q-221 0 -338.5 108.5t-117.5 362.5zM291 528q0 -174 67.5 -247.5t237.5 -75.5 q141 0 326 47v565q-154 47 -316 47q-186 0 -250.5 -75.5t-64.5 -260.5z" />
<glyph unicode="h" horiz-adv-x="1255" d="M154 0v1364h182v-416q231 72 387 72q260 0 340 -186q39 -86 39 -277v-557h-182v541q0 152 -31 221q-51 102 -215 102q-137 0 -338 -65v-799h-182z" />
<glyph unicode="i" horiz-adv-x="489" d="M154 0v1004h182v-1004h-182zM154 1184v180h182v-180h-182z" />
<glyph unicode="j" horiz-adv-x="489" d="M-18 -199q109 0 140.5 30t31.5 138v1035h182v-916q0 -160 -9.5 -224.5t-47.5 -119.5q-68 -90 -216 -90q-43 0 -81 8v139zM154 1184v180h182v-180h-182z" />
<glyph unicode="k" horiz-adv-x="1224" d="M154 0v1364h182v-877l606 517h244l-441 -365l443 -639h-217l-363 526l-272 -225v-301h-182z" />
<glyph unicode="l" horiz-adv-x="489" d="M154 0v1364h182v-1364h-182z" />
<glyph unicode="m" horiz-adv-x="1976" d="M154 0v1004h168l4 -62q260 78 426 78q188 0 268 -96q256 96 442 96q252 0 326 -186q35 -84 35 -263v-571h-183v567q0 141 -28 203q-45 94 -189 94q-160 0 -344 -80v-784h-182v610q0 158 -47 205q-49 49 -156 49q-133 0 -358 -67v-797h-182z" />
<glyph unicode="n" d="M154 0v1004h168l4 -60q231 76 397 76q260 0 340 -186q39 -86 39 -277v-557h-182v541q0 152 -31 221q-51 102 -215 102q-137 0 -338 -65v-799h-182z" />
<glyph unicode="o" horiz-adv-x="1290" d="M109 502q0 293 114.5 405.5t421.5 112.5t422 -112.5t115 -405.5t-115 -405.5t-422 -112.5t-421.5 112.5t-114.5 405.5zM291 502q0 -215 67.5 -289t286.5 -74t286.5 74t67.5 289t-67.5 288.5t-286.5 73.5t-286.5 -73.5t-67.5 -288.5z" />
<glyph unicode="p" d="M154 -346v1350h168l8 -64q209 78 372 78q240 0 343.5 -126t103.5 -376v-24q0 -504 -471 -504q-166 0 -342 43v-377h-182zM336 182q182 -41 315 -41q172 0 244 84t72 267v26q0 176 -63.5 261t-237.5 85h-4q-132 0 -326 -65v-617z" />
<glyph unicode="q" horiz-adv-x="1255" d="M111 485v33q0 502 452 502q158 0 371 -62l6 46h166v-1350h-182v395q-210 -65 -370 -65h-5q-238 0 -338 126.5t-100 374.5zM291 485q0 -176 63.5 -262t237.5 -86q144 1 332 60v622q-158 45 -316 45q-174 0 -245.5 -86t-71.5 -266v-27z" />
<glyph unicode="r" horiz-adv-x="747" d="M154 0v1004h168l4 -72q223 82 399 88v-158q-219 -10 -389 -71v-791h-182z" />
<glyph unicode="s" horiz-adv-x="1040" d="M98 745q0 274 428 275q143 0 363 -35v-156q-180 35 -361 35q-147 0 -198 -30.5t-51 -88.5q0 -51 44 -80.5t171 -64.5l94 -27q215 -59 282.5 -128.5t67.5 -180.5q0 -280 -439 -280h-3q-215 0 -394 49v157q221 -51 392 -51q264 0 264 123q0 55 -42.5 88t-185.5 74l-94 27 q-201 57 -269.5 122.5t-68.5 171.5z" />
<glyph unicode="t" horiz-adv-x="901" d="M78 854v150h188v258h180v-258h375v-150h-375v-512q0 -117 25 -156q31 -47 125 -47q88 0 225 23v-152q-109 -26 -217 -26h-8q-207 0 -277 90q-53 70 -53 270v510h-188z" />
<glyph unicode="u" d="M154 446v558h182v-541q0 -152 31 -223q51 -102 215 -103q135 0 338 62v805h182v-1004h-168l-4 59q-228 -75 -394 -75h-4q-260 0 -339 186q-39 86 -39 276z" />
<glyph unicode="v" horiz-adv-x="1169" d="M31 1004h200l359 -857l348 857h201l-430 -1004h-250z" />
<glyph unicode="w" horiz-adv-x="1837" d="M45 1004h195l264 -852l305 852h217l317 -852l252 852h197l-324 -1004h-241l-314 821l-301 -821h-241z" />
<glyph unicode="x" horiz-adv-x="1222" d="M33 0l465 508l-447 496h238l327 -369l336 369h217l-448 -488l467 -516h-240l-342 387l-358 -387h-215z" />
<glyph unicode="y" horiz-adv-x="1181" d="M41 1004h201l362 -857l344 857h201l-449 -1049q-74 -170 -155.5 -235.5t-216.5 -65.5q-78 0 -181 18v156q105 -18 168 -18q82 0 122 29.5t73 101.5l27 59h-68z" />
<glyph unicode="z" horiz-adv-x="1140" d="M111 0v178l688 676h-688v150h899v-173l-703 -679h725v-152h-921z" />
<glyph unicode="{" horiz-adv-x="870" d="M129 451v151h16q100 4 139.5 39t39.5 145v172q0 244 78.5 334t320.5 90h16v-149h-14q-141 -4 -182 -46t-41 -188v-147q0 -76 -3 -113t-16.5 -84t-46.5 -75.5t-90 -51.5q53 -23 86 -54.5t47.5 -78.5t18.5 -88t4 -108v-164q0 -139 41 -186.5t196 -47.5v-147h-16 q-223 0 -311 77t-88 259v196q0 94 -6.5 143.5t-31 77t-52 33.5t-91.5 11h-14z" />
<glyph unicode="|" horiz-adv-x="454" d="M147 -330v1739h160v-1739h-160z" />
<glyph unicode="}" horiz-adv-x="870" d="M129 -199q158 0 198 47.5t40 186.5v164q0 133 29.5 213t125.5 116q-55 23 -88 52.5t-47 74.5t-17 84t-3 113v147q0 143 -38 185.5t-186 48.5h-14v149h16q244 0 323 -89t79 -335v-172q0 -113 40 -147.5t138 -36.5h14v-151h-12q-104 -6 -142 -39t-38 -146v-141 q0 -145 -11.5 -223t-52.5 -140.5t-120.5 -85t-217.5 -22.5h-16v147z" />
<glyph unicode="~" horiz-adv-x="1300" d="M172 414q12 117 81 188.5t187 71.5q78 0 226.5 -69.5t191.5 -69.5q86 0 111 104h157q-12 -117 -80.5 -188.5t-187.5 -71.5q-102 0 -233 72l-31 16q-98 51 -154 51q-86 0 -110 -104h-158z" />
<glyph horiz-adv-x="606" />
<glyph unicode="&#xa1;" horiz-adv-x="516" d="M143 784v220h226v-220h-226zM162 -86l22 725h148l22 -725v-244h-192v244z" />
<glyph unicode="&#xa2;" horiz-adv-x="1124" d="M115 686q0 262 99 381t353 129v184h125v-184q209 -8 334 -39v-153q-139 33 -334 45v-727q201 16 334 53v-154q-145 -37 -334 -47v-190h-125v190q-254 8 -353 129t-99 383zM293 686q0 -199 56.5 -277.5t217.5 -86.5v727q-162 -8 -218 -86t-56 -277z" />
<glyph unicode="&#xa3;" horiz-adv-x="1265" d="M113 635v153h153q-12 135 -12 213q0 387 451 388q184 0 409 -46v-159q-213 49 -395 49q-283 0 -283 -246q0 -76 8 -199h371v-153h-354q12 -131 12 -197q0 -104 -22.5 -161.5t-71.5 -118.5h782v-158h-1030v123q80 55 122 124.5t42 186.5q0 96 -12 201h-170z" />
<glyph unicode="&#xa4;" horiz-adv-x="1265" d="M172 1018l34.5 34.5l42 42t36.5 35.5l121 -116q80 39 227 39q143 0 227 -39l121 116l35.5 -35.5l42 -42t35.5 -34.5l-119 -117q41 -88 41 -219q0 -133 -43 -223q41 -37 119 -115l-115 -113q-59 59 -121 115q-82 -37 -223 -37t-225 37q-41 -37 -119 -115l-115 113 q78 78 119 115q-43 78 -43 223q0 137 41 219zM399 682q0 -131 50.5 -184.5t183.5 -53.5t183 53.5t50 184.5t-50 183.5t-183 52.5t-183.5 -52.5t-50.5 -183.5z" />
<glyph unicode="&#xa5;" horiz-adv-x="1265" d="M35 1364h213l389 -514l391 514h201l-453 -573h281v-142h-340v-174h340v-141h-340v-334h-180v334h-353v141h353v174h-353v142h295z" />
<glyph unicode="&#xa6;" horiz-adv-x="454" d="M147 276h160v-606h-160v606zM147 803v608h160v-608h-160z" />
<glyph unicode="&#xa7;" horiz-adv-x="1099" d="M96 532q0 104 67.5 179t192.5 106q-203 63 -202 258q0 143 103 228.5t312 85.5q188 0 312 -41v-154q-160 43 -320 43q-242 0 -242 -162q0 -35 16.5 -62.5t35 -44t58.5 -32.5t59.5 -22.5t66.5 -18.5l111 -29q188 -49 252.5 -128t64.5 -199q0 -225 -256 -289 q205 -63 205 -264q0 -150 -110.5 -235t-317.5 -85q-209 0 -334 45v158q160 -49 340 -49q102 0 178 38t76 130q0 57 -43 98t-84 55.5t-115 34.5l-108 29q-145 39 -215 94q-103 75 -103 233zM266 537q0 -82 41 -124t139 -67l105 -29q262 14 262 218q0 82 -41 123.5t-139 66.5 l-105 29q-262 -18 -262 -217z" />
<glyph unicode="&#xa8;" horiz-adv-x="772" d="M76 1126v181h168v-181h-168zM526 1126v181h170v-181h-170z" />
<glyph unicode="&#xa9;" horiz-adv-x="1648" d="M121 682q0 205 27.5 330t104.5 215t214 126t358.5 36t358.5 -36t214 -126t104.5 -215t27.5 -330t-27.5 -330t-104.5 -215t-214 -126t-358.5 -36t-358.5 36t-214 126t-104.5 215t-27.5 330zM254 681.5q0 -192.5 19.5 -300t84 -179t172 -94t296 -22.5t296 22.5t172 94 t84 179t19.5 300t-19.5 300.5t-84 178.5t-172 94t-296 23.5t-296 -23.5t-172 -94t-84 -178.5t-19.5 -300.5zM412 682q0 260 80 358q82 102 335 103q195 0 322 -39v-131q-145 39 -313 39q-184 0 -229.5 -58.5t-45.5 -271.5q0 -209 47 -269.5t228 -60.5q176 0 313 37v-129 q-154 -41 -322 -41q-242 0 -325 90q-90 99 -90 373z" />
<glyph unicode="&#xaa;" horiz-adv-x="862" d="M104 909q0 115 63.5 166.5t229.5 59.5q53 4 203 4q-2 78 -37 105.5t-121 27.5q-131 0 -258 -33v121q133 29 265 29q156 0 223 -54.5t67 -183.5v-238q0 -121 11 -200h-132l-12 30q-123 -43 -256 -43q-246 0 -246 209zM109 479v115h632v-115h-632zM244 909q0 -96 135 -96 q109 0 221 33v192q-123 0 -176 -4q-109 -6 -144.5 -34.5t-35.5 -90.5z" />
<glyph unicode="&#xab;" horiz-adv-x="1171" d="M125 514l313 381h191l-310 -381l306 -383h-187zM530 514l314 381h192l-311 -381l305 -383h-186z" />
<glyph unicode="&#xac;" horiz-adv-x="1300" d="M158 446v148h985v-485h-158v337h-827z" />
<glyph unicode="&#xad;" horiz-adv-x="839" d="M176 451v167h488v-167h-488z" />
<glyph unicode="&#xae;" horiz-adv-x="1648" d="M121 682q0 207 26.5 332t104.5 214t214 125t359.5 36t359.5 -36t214 -125t104.5 -214t26.5 -332t-26.5 -332t-104.5 -214t-214 -125t-359.5 -36t-359.5 36t-214 125t-104.5 214t-26.5 332zM254 682q0 -129 8 -215t32.5 -157.5t62.5 -111.5t104.5 -68t151.5 -37t212 -9 t212 9t151.5 37t104.5 68t62.5 111.5t33 157.5t8.5 215q0 195 -19.5 302.5t-84 178t-171 93t-297 22.5t-297 -22.5t-171 -93t-84 -178t-19.5 -302.5zM455 248v889h463q168 0 238.5 -56.5t70.5 -181.5q0 -154 -123 -209q66 -23 96 -100q10 -27 16.5 -75t8.5 -80t4 -103.5 t2 -83.5h-144q0 180 -16 256q-16 84 -57 106.5t-131 22.5h-285v-385h-143zM598 750h354q129 0 129 145q0 63 -31.5 94t-125.5 31h-326v-270z" />
<glyph unicode="&#xaf;" horiz-adv-x="772" d="M133 1178v131h504v-131h-504z" />
<glyph unicode="&#xb0;" horiz-adv-x="864" d="M117 1083q0 156 71.5 231t243.5 75q174 0 245 -73t71 -233q0 -162 -76 -233.5t-240 -71.5q-170 0 -242.5 71.5t-72.5 233.5zM256 1083.5q0 -100.5 38 -140.5t138 -40t138 40t38 140.5t-38 139.5t-138 39t-138 -39t-38 -139.5z" />
<glyph unicode="&#xb1;" horiz-adv-x="1300" d="M182 0v147h934v-147h-934zM182 614v148h391v403h156v-403h387v-148h-387v-401h-156v401h-391z" />
<glyph unicode="&#xb2;" horiz-adv-x="806" d="M117 567v74q0 123 49 186.5t194 147.5l64 37q82 47 113.5 78.5t31.5 72.5q0 92 -157 92q-104 0 -285 -38v133q170 39 287 39q301 0 301 -222q0 -78 -57.5 -139t-165.5 -125l-74 -43q-145 -84 -150 -162h455v-131h-606z" />
<glyph unicode="&#xb3;" horiz-adv-x="831" d="M117 592v137q174 -41 289 -41q178 0 178 123q0 68 -39 91.5t-129 23.5h-133v123h133q151 0 151 104t-161 104q-131 0 -263 -32v135q152 29 269 29q299 0 299 -222q0 -119 -125 -174q70 -18 105.5 -69.5t35.5 -120.5q0 -246 -317 -246q-131 0 -293 35z" />
<glyph unicode="&#xb4;" horiz-adv-x="772" d="M193 1126l178 238h227l-231 -238h-174z" />
<glyph unicode="&#xb5;" d="M154 -330v1334h182v-596q0 -158 59 -211q59 -59 203 -60q119 0 324 66v801h180v-1004h-162l-8 61q-182 -78 -350 -77q-152 0 -246 71v-385h-182z" />
<glyph unicode="&#xb6;" horiz-adv-x="1101" d="M96 961q0 223 103.5 313t345.5 90h391v-1694h-145v1569h-179v-1569h-145v891q-197 12 -284 103.5t-87 296.5z" />
<glyph unicode="&#xb7;" horiz-adv-x="509" d="M141 594v219h226v-219h-226z" />
<glyph unicode="&#xb8;" horiz-adv-x="772" d="M219 -231q78 -8 107 -9q55 0 55 45t-57 45q-59 0 -101 -4l21 154h121l-9 -55q16 2 35 2q160 0 160 -142q0 -152 -193 -151q-61 0 -139 14v101z" />
<glyph unicode="&#xb9;" horiz-adv-x="802" d="M109 567v133h243v539l-231 -22v131l375 36v-684h225v-133h-612z" />
<glyph unicode="&#xba;" horiz-adv-x="929" d="M109 1044.5q0 194.5 75.5 269.5t280.5 75t280.5 -75t75.5 -270q0 -193 -75.5 -267.5t-280.5 -74.5t-280.5 74t-75.5 268.5zM121 479v115h686v-115h-686zM242 1044.5q0 -133.5 43 -180.5t180 -47t179 46t42 181q0 133 -42 179.5t-179 46.5t-180 -46t-43 -179.5z" />
<glyph unicode="&#xbb;" horiz-adv-x="1171" d="M131 135l311 379l-305 385h187l313 -385l-313 -379h-193zM539 135l309 379l-305 385h186l315 -385l-315 -379h-190z" />
<glyph unicode="&#xbc;" horiz-adv-x="1869" d="M88 567v133h244v539l-232 -22v129l375 38v-684h225v-133h-612zM528 0l660 1364h149l-659 -1364h-150zM1083 176v178l310 455h174l-353 -504h297v207h140v-207h106v-129h-106v-176h-140v176h-428z" />
<glyph unicode="&#xbd;" horiz-adv-x="1869" d="M88 567v133h244v541l-232 -22v129l375 36v-684h225v-133h-612zM526 0l660 1364h151l-659 -1364h-152zM1155 0v72q0 113 53.5 183.5t190.5 150.5l63 36q80 47 111 77t31 71q0 98 -154 98q-113 0 -283 -41v135q170 37 287 37q299 0 299 -219q0 -76 -50 -134t-171 -130 l-39 -23q-104 -61 -145 -101t-41 -81h454v-131h-606z" />
<glyph unicode="&#xbe;" horiz-adv-x="1869" d="M96 592v135q166 -39 289 -39q178 0 178 123q0 68 -39 91.5t-129 23.5h-133v123h133q152 0 152 106q0 61 -43 81.5t-119 20.5q-139 0 -262 -30v133q156 29 268 29q299 0 299 -222q0 -119 -125 -174q70 -18 106 -69.5t36 -120.5q0 -246 -318 -246q-131 0 -293 35zM528 0 l660 1364h149l-659 -1364h-150zM1083 176v178l310 455h174l-353 -504h297v207h140v-207h106v-129h-106v-176h-140v176h-428z" />
<glyph unicode="&#xbf;" horiz-adv-x="1138" d="M106 -2q0 102 50.5 176t187.5 152l96 55q76 43 104.5 85t28.5 124v49h166q0 -8 2 -32.5t2 -57.5q0 -117 -65 -193q-47 -53 -135 -100l-66 -35q-109 -59 -147.5 -107t-38.5 -114q0 -96 70.5 -143t232.5 -47q166 0 428 49v-160q-250 -45 -428 -45q-487 0 -488 344zM537 784 v220h225v-220h-225z" />
<glyph unicode="&#xc0;" horiz-adv-x="1560" d="M55 0l598 1364h254l596 -1364h-213l-145 346h-735l-144 -346h-211zM467 1724h227l178 -237h-174zM471 502h612l-305 727z" />
<glyph unicode="&#xc1;" horiz-adv-x="1560" d="M55 0l598 1364h254l596 -1364h-213l-145 346h-735l-144 -346h-211zM471 502h612l-305 727zM680 1487l178 237h227l-231 -237h-174z" />
<glyph unicode="&#xc2;" horiz-adv-x="1560" d="M55 0l598 1364h254l596 -1364h-213l-145 346h-735l-144 -346h-211zM471 502h612l-305 727zM500 1487l168 237h237l148 -237h-144l-131 147l-133 -147h-145z" />
<glyph unicode="&#xc3;" horiz-adv-x="1560" d="M55 0l598 1364h254l596 -1364h-213l-145 346h-735l-144 -346h-211zM471 502h612l-305 727zM500 1487v33q0 109 31.5 151.5t103.5 42.5q63 0 150 -47t110 -47q31 0 35 41v51h123v-33q0 -104 -32 -148t-103 -44q-64 0 -162 53l-27 14q-53 27 -72 27q-31 0 -34 -41v-53h-123 z" />
<glyph unicode="&#xc4;" horiz-adv-x="1560" d="M55 0l598 1364h254l596 -1364h-213l-145 346h-735l-144 -346h-211zM453 1487v180h168v-180h-168zM471 502h612l-305 727zM924 1487v180h170v-180h-170z" />
<glyph unicode="&#xc5;" horiz-adv-x="1560" d="M55 0l598 1364h254l596 -1364h-213l-145 346h-735l-144 -346h-211zM471 502h612l-305 727zM582 1626q0 96 42 135t150.5 39t152.5 -40t44 -134q0 -90 -44 -130t-152.5 -40t-150.5 40t-42 130zM688 1626q0 -43 18.5 -60.5t67.5 -17.5t67.5 17.5t18.5 60.5q0 47 -18.5 64.5 t-67.5 17.5t-67.5 -17.5t-18.5 -64.5z" />
<glyph unicode="&#xc6;" horiz-adv-x="2217" d="M47 0l948 1364h1106v-160h-805v-440h646v-160h-646v-446h805v-158h-997v346h-598l-236 -346h-223zM608 502h496v704h-14z" />
<glyph unicode="&#xc7;" horiz-adv-x="1370" d="M123 680q0 203 29.5 331t109.5 216t216 125t351 37q231 0 422 -50v-165q-215 55 -415 55q-170 0 -267.5 -21.5t-156 -88t-76 -165t-17.5 -274.5t17.5 -273.5t76 -163t156 -87t267.5 -21.5q221 0 415 53v-165q-201 -45 -424 -46q-70 0 -104 3l-4 -35q12 2 33 2 q160 0 159 -144q0 -150 -190 -149q-61 0 -141 14v101q53 -8 104 -9q59 0 59 45t-61 45q-49 0 -98 -4l18 142q-276 35 -377.5 191.5t-101.5 500.5z" />
<glyph unicode="&#xc8;" horiz-adv-x="1378" d="M178 0v1364h1082v-160h-889v-440h729v-160h-729v-444h889v-160h-1082zM461 1724h227l178 -237h-174z" />
<glyph unicode="&#xc9;" horiz-adv-x="1361" d="M162 0v1364h1081v-160h-889v-440h729v-160h-729v-444h889v-160h-1081zM571 1487l179 237h227l-232 -237h-174z" />
<glyph unicode="&#xca;" horiz-adv-x="1378" d="M178 0v1364h1082v-160h-889v-440h729v-160h-729v-444h889v-160h-1082zM442 1487l168 237h238l147 -237h-143l-131 147l-133 -147h-146z" />
<glyph unicode="&#xcb;" horiz-adv-x="1378" d="M178 0v1364h1082v-160h-889v-440h729v-160h-729v-444h889v-160h-1082zM395 1487v180h168v-180h-168zM866 1487v180h170v-180h-170z" />
<glyph unicode="&#xcc;" horiz-adv-x="548" d="M-47 1724h227l178 -237h-174zM178 0v1364h193v-1364h-193z" />
<glyph unicode="&#xcd;" horiz-adv-x="548" d="M178 0v1364h193v-1364h-193zM193 1487l178 237h227l-231 -237h-174z" />
<glyph unicode="&#xce;" horiz-adv-x="548" d="M-2 1487l168 237h237l148 -237h-143l-132 147l-133 -147h-145zM178 0v1364h193v-1364h-193z" />
<glyph unicode="&#xcf;" horiz-adv-x="548" d="M23 1487v180h167v-180h-167zM178 0v1364h193v-1364h-193zM356 1487v180h168v-180h-168z" />
<glyph unicode="&#xd0;" horiz-adv-x="1579" d="M59 629v153h119v582h490q254 0 385 -31q227 -51 316 -204.5t89 -446.5t-89 -446.5t-316 -204.5q-131 -31 -385 -31h-490v629h-119zM371 160h297q252 0 358 33q143 45 189.5 155.5t46.5 333.5t-46.5 333.5t-189.5 155.5q-106 33 -358 33h-297v-422h434v-153h-434v-469z " />
<glyph unicode="&#xd1;" horiz-adv-x="1667" d="M178 0v1364h291l834 -1208v1208h184v-1364h-291l-831 1204v-1204h-187zM555 1487v33q0 109 31.5 151.5t103.5 42.5q63 0 150.5 -47t109.5 -47q31 0 35 41v51h123v-33q0 -104 -32 -148t-103 -44q-64 0 -162 53l-27 14q-53 27 -71 27q-31 0 -35 -41v-53h-123z" />
<glyph unicode="&#xd2;" horiz-adv-x="1656" d="M121 682q0 203 29.5 331t109.5 216t216 124t353 36q215 0 351.5 -36t216.5 -124t109.5 -216t29.5 -331t-29.5 -331t-109.5 -216t-216.5 -124t-351.5 -36q-217 0 -353 36t-216 124t-109.5 216t-29.5 331zM317 682q0 -178 17.5 -275.5t75 -164t153.5 -87t266 -20.5 t265.5 20.5t153 86t74.5 164t17 276.5t-16 275.5t-73.5 164t-154 87t-266.5 20.5q-172 0 -268 -21.5t-153.5 -87t-74 -163t-16.5 -275.5zM545 1724h227l178 -237h-174z" />
<glyph unicode="&#xd3;" horiz-adv-x="1656" d="M121 682q0 203 29.5 331t109.5 216t216 124t353 36q215 0 351.5 -36t216.5 -124t109.5 -216t29.5 -331t-29.5 -331t-109.5 -216t-216.5 -124t-351.5 -36q-217 0 -353 36t-216 124t-109.5 216t-29.5 331zM317 682q0 -178 17.5 -275.5t75 -164t153.5 -87t266 -20.5 t265.5 20.5t153 86t74.5 164t17 276.5t-16 275.5t-73.5 164t-154 87t-266.5 20.5q-172 0 -268 -21.5t-153.5 -87t-74 -163t-16.5 -275.5zM713 1487l178 237h227l-231 -237h-174z" />
<glyph unicode="&#xd4;" horiz-adv-x="1656" d="M121 682q0 203 29.5 331t109.5 216t216 124t353 36q215 0 351.5 -36t216.5 -124t109.5 -216t29.5 -331t-29.5 -331t-109.5 -216t-216.5 -124t-351.5 -36q-217 0 -353 36t-216 124t-109.5 216t-29.5 331zM317 682q0 -178 17.5 -275.5t75 -164t153.5 -87t266 -20.5 t265.5 20.5t153 86t74.5 164t17 276.5t-16 275.5t-73.5 164t-154 87t-266.5 20.5q-172 0 -268 -21.5t-153.5 -87t-74 -163t-16.5 -275.5zM553 1487l168 237h237l148 -237h-143l-132 147l-133 -147h-145z" />
<glyph unicode="&#xd5;" horiz-adv-x="1656" d="M121 682q0 203 29.5 331t109.5 216t216 124t353 36q215 0 351.5 -36t216.5 -124t109.5 -216t29.5 -331t-29.5 -331t-109.5 -216t-216.5 -124t-351.5 -36q-217 0 -353 36t-216 124t-109.5 216t-29.5 331zM317 682q0 -178 17.5 -275.5t75 -164t153.5 -87t266 -20.5 t265.5 20.5t153 86t74.5 164t17 276.5t-16 275.5t-73.5 164t-154 87t-266.5 20.5q-172 0 -268 -21.5t-153.5 -87t-74 -163t-16.5 -275.5zM565 1487v33q0 109 32 151.5t103 42.5q63 0 150.5 -47t110.5 -47q31 0 34 41v51h123v-33q0 -104 -31.5 -148t-103.5 -44q-64 0 -162 53 l-26 14q-53 27 -72 27q-31 0 -35 -41v-53h-123z" />
<glyph unicode="&#xd6;" horiz-adv-x="1656" d="M121 682q0 203 29.5 331t109.5 216t216 124t353 36q215 0 351.5 -36t216.5 -124t109.5 -216t29.5 -331t-29.5 -331t-109.5 -216t-216.5 -124t-351.5 -36q-217 0 -353 36t-216 124t-109.5 216t-29.5 331zM317 682q0 -178 17.5 -275.5t75 -164t153.5 -87t266 -20.5 t265.5 20.5t153 86t74.5 164t17 276.5t-16 275.5t-73.5 164t-154 87t-266.5 20.5q-172 0 -268 -21.5t-153.5 -87t-74 -163t-16.5 -275.5zM506 1487v180h168v-180h-168zM977 1487v180h170v-180h-170z" />
<glyph unicode="&#xd7;" horiz-adv-x="1300" d="M193 176l346 350l-346 353l108 108l348 -352l346 352l109 -108l-348 -353l348 -350l-109 -108l-346 352l-348 -352z" />
<glyph unicode="&#xd8;" horiz-adv-x="1656" d="M121 78l102 102q-102 147 -102 502q0 203 29.5 331t109.5 216t216 124t353 36q344 0 500 -103l103 103l104 -103l-102 -102q102 -152 102 -502q0 -203 -29.5 -331t-109.5 -216t-216.5 -124t-351.5 -36q-346 0 -501 103l-103 -103zM317 682q0 -254 43 -365l844 844 q-106 68 -375 68q-172 0 -268 -21.5t-153.5 -87t-74 -163t-16.5 -275.5zM453 203q100 -68 376 -68q170 0 265.5 20.5t153 86t74.5 164t17 276.5q0 254 -43 365z" />
<glyph unicode="&#xd9;" horiz-adv-x="1591" d="M178 522v842h193v-813q0 -137 16 -217t62 -123q76 -76 348 -76q250 0 329 66q53 43 74 124t21 226v813h192v-842q0 -332 -158 -448q-131 -98 -458 -99q-348 0 -480 109q-139 119 -139 438zM508 1724h227l178 -237h-174z" />
<glyph unicode="&#xda;" horiz-adv-x="1591" d="M178 522v842h193v-813q0 -137 16 -217t62 -123q76 -76 348 -76q250 0 329 66q53 43 74 124t21 226v813h192v-842q0 -332 -158 -448q-131 -98 -458 -99q-348 0 -480 109q-139 119 -139 438zM678 1487l178 237h227l-231 -237h-174z" />
<glyph unicode="&#xdb;" horiz-adv-x="1591" d="M178 522v842h193v-813q0 -137 16 -217t62 -123q76 -76 348 -76q250 0 329 66q53 43 74 124t21 226v813h192v-842q0 -332 -158 -448q-131 -98 -458 -99q-348 0 -480 109q-139 119 -139 438zM518 1487l168 237h238l147 -237h-143l-131 147l-133 -147h-146z" />
<glyph unicode="&#xdc;" horiz-adv-x="1574" d="M162 522v842h192v-813q0 -137 16.5 -217t61.5 -123q76 -76 348 -76q250 0 330 66q53 43 73.5 124t20.5 226v813h193v-842q0 -332 -158 -448q-131 -98 -459 -99q-348 0 -479 109q-139 119 -139 438zM459 1487v180h168v-180h-168zM930 1487v180h170v-180h-170z" />
<glyph unicode="&#xdd;" horiz-adv-x="1505" d="M31 1364h243l480 -635l491 635h230l-631 -801v-563h-193v563zM635 1487l178 237h227l-231 -237h-174z" />
<glyph unicode="&#xde;" horiz-adv-x="1470" d="M162 0v1364h192v-274h496q217 0 313 -46q195 -88 195 -360q0 -281 -195 -369q-96 -45 -313 -45h-496v-270h-192zM354 430h496q182 0 237 39q78 53 78 215q0 154 -78 207q-55 39 -237 39h-496v-500z" />
<glyph unicode="&#xdf;" horiz-adv-x="1316" d="M154 0v862q0 285 100 391q117 123 410 123q223 0 342.5 -92t119.5 -268q0 -205 -168 -268q252 -55 252 -355q0 -410 -477 -409q-133 0 -258 14v154q141 -16 244 -17q184 0 246.5 66.5t62.5 193.5q0 100 -32.5 157.5t-110.5 82.5q-61 20 -193 20h-211v146h187 q125 0 186 33q90 49 90 180q0 109 -68.5 159t-211.5 50q-109 0 -173.5 -16.5t-101.5 -63.5q-53 -70 -53 -281v-862h-182z" />
<glyph unicode="&#xe0;" horiz-adv-x="1204" d="M104 297q0 115 42 185.5t143 107.5q135 49 579 49q-2 137 -56 181t-206 44q-203 0 -379 -45v156q199 45 387 45q258 0 346.5 -94.5t88.5 -343.5v-279q0 -205 12 -303h-174q-6 27 -10 61q-219 -78 -410 -77q-184 0 -273.5 83t-89.5 230zM287 305q0 -168 211 -168 q145 0 370 60v311q-88 0 -206 -4q-225 -8 -300 -50t-75 -149zM334 1364h227l178 -238h-174z" />
<glyph unicode="&#xe1;" horiz-adv-x="1204" d="M104 297q0 115 42 185.5t143 107.5q135 49 579 49q-2 137 -56 181t-206 44q-203 0 -379 -45v156q199 45 387 45q258 0 346.5 -94.5t88.5 -343.5v-279q0 -205 12 -303h-174q-6 27 -10 61q-219 -78 -410 -77q-184 0 -273.5 83t-89.5 230zM287 305q0 -168 211 -168 q145 0 370 60v311q-88 0 -206 -4q-225 -8 -300 -50t-75 -149zM459 1126l178 238h227l-231 -238h-174z" />
<glyph unicode="&#xe2;" horiz-adv-x="1204" d="M104 297q0 115 42 185.5t143 107.5q135 49 579 49q-2 137 -56 181t-206 44q-203 0 -379 -45v156q199 45 387 45q258 0 346.5 -94.5t88.5 -343.5v-279q0 -205 12 -303h-174q-6 27 -10 61q-219 -78 -410 -77q-184 0 -273.5 83t-89.5 230zM287 305q0 -168 211 -168 q145 0 370 60v311q-88 0 -206 -4q-225 -8 -300 -50t-75 -149zM312 1124l167 240h218l168 -240h-144l-131 150l-133 -150h-145z" />
<glyph unicode="&#xe3;" horiz-adv-x="1204" d="M104 297q0 115 42 185.5t143 107.5q135 49 579 49q-2 137 -56 181t-206 44q-203 0 -379 -45v156q199 45 387 45q258 0 346.5 -94.5t88.5 -343.5v-279q0 -205 12 -303h-174q-6 27 -10 61q-219 -78 -410 -77q-184 0 -273.5 83t-89.5 230zM287 305q0 -168 211 -168 q145 0 370 60v311q-88 0 -206 -4q-225 -8 -300 -50t-75 -149zM315 1133v32q0 109 32 152t104 43q63 0 161 -53l27 -15q53 -27 72 -26q33 0 34 67v27h123v-33q0 -106 -31.5 -150t-103.5 -44q-63 0 -162 53l-26 14q-53 27 -72 27q-33 0 -35 -68v-26h-123z" />
<glyph unicode="&#xe4;" horiz-adv-x="1204" d="M104 297q0 115 42 185.5t143 107.5q135 49 579 49q-2 137 -56 181t-206 44q-203 0 -379 -45v156q199 45 387 45q258 0 346.5 -94.5t88.5 -343.5v-279q0 -205 12 -303h-174q-6 27 -10 61q-219 -78 -410 -77q-184 0 -273.5 83t-89.5 230zM281 1126v181h168v-181h-168z M287 305q0 -168 211 -168q145 0 370 60v311q-88 0 -206 -4q-225 -8 -300 -50t-75 -149zM731 1126v181h170v-181h-170z" />
<glyph unicode="&#xe5;" horiz-adv-x="1204" d="M104 297q0 115 42 185.5t143 107.5q135 49 579 49q-2 137 -56 181t-206 44q-203 0 -379 -45v156q199 45 387 45q258 0 346.5 -94.5t88.5 -343.5v-279q0 -205 12 -303h-174q-6 27 -10 61q-219 -78 -410 -77q-184 0 -273.5 83t-89.5 230zM287 305q0 -168 211 -168 q145 0 370 60v311q-88 0 -206 -4q-225 -8 -300 -50t-75 -149zM412 1270q0 96 42 135t150.5 39t152.5 -40t44 -134q0 -90 -44 -130t-152.5 -40t-150.5 40t-42 130zM518 1270q0 -43 18.5 -60.5t67.5 -17.5t67.5 17.5t18.5 60.5q0 47 -18.5 64.5t-67.5 17.5t-67.5 -17.5 t-18.5 -64.5z" />
<glyph unicode="&#xe6;" horiz-adv-x="1959" d="M104 295q0 160 95.5 231.5t343.5 85.5q121 6 325 6v29q-2 127 -59 173t-201 46q-211 0 -379 -43v154q203 43 385 43q150 0 239 -36t132 -122q102 158 393 158q240 0 361 -118t121 -372v-45h-816v-39q0 -104 23 -167.5t74 -93t105 -39t147 -9.5q184 0 426 58v-156 q-225 -55 -430 -55q-297 0 -412 114q-266 -115 -481 -114q-391 0 -392 311zM287 295q0 -80 52 -119t173 -39q156 0 356 82v266h-69q-143 0 -226 -6q-178 -12 -232 -54t-54 -130zM1047 621h624q0 243 -303 243q-170 0 -238.5 -62.5t-82.5 -180.5z" />
<glyph unicode="&#xe7;" horiz-adv-x="1075" d="M109 502q0 274 112.5 396t401.5 122q170 0 352 -47v-156q-182 47 -348 47q-195 0 -265.5 -76.5t-70.5 -285.5t70.5 -286t265.5 -77q158 0 348 49v-157q-174 -45 -352 -45h-25l-6 -43q12 2 35 2q160 0 159 -140q0 -152 -192 -151q-61 0 -139 14v101l106 -9q55 0 55 45 t-57 45q-23 0 -59.5 -2t-40.5 -2l18 148q-205 27 -286.5 147.5t-81.5 360.5z" />
<glyph unicode="&#xe8;" horiz-adv-x="1206" d="M109 489v11q0 266 122.5 393t380.5 127q262 0 378 -116t116 -384v-37h-819q0 -117 23.5 -188.5t78.5 -104t109.5 -42t150.5 -9.5q158 0 414 56v-156q-227 -55 -418 -55q-98 0 -168.5 9t-145.5 38.5t-120 84t-73.5 148.5t-28.5 225zM293 621h625q-1 243 -304 243 q-170 0 -238.5 -62.5t-82.5 -180.5zM309 1364h227l178 -238h-174z" />
<glyph unicode="&#xe9;" horiz-adv-x="1206" d="M109 489v11q0 266 122.5 393t380.5 127q262 0 378 -116t116 -384v-37h-819q0 -117 23.5 -188.5t78.5 -104t109.5 -42t150.5 -9.5q158 0 414 56v-156q-227 -55 -418 -55q-98 0 -168.5 9t-145.5 38.5t-120 84t-73.5 148.5t-28.5 225zM293 621h625q-1 243 -304 243 q-170 0 -238.5 -62.5t-82.5 -180.5zM494 1126l178 238h227l-231 -238h-174z" />
<glyph unicode="&#xea;" horiz-adv-x="1206" d="M109 489v11q0 266 122.5 393t380.5 127q262 0 378 -116t116 -384v-37h-819q0 -117 23.5 -188.5t78.5 -104t109.5 -42t150.5 -9.5q158 0 414 56v-156q-227 -55 -418 -55q-98 0 -168.5 9t-145.5 38.5t-120 84t-73.5 148.5t-28.5 225zM293 621h625q-1 243 -304 243 q-170 0 -238.5 -62.5t-82.5 -180.5zM332 1124l167 240h218l168 -240h-144l-131 150l-133 -150h-145z" />
<glyph unicode="&#xeb;" horiz-adv-x="1206" d="M109 489v11q0 266 122.5 393t380.5 127q262 0 378 -116t116 -384v-37h-819q0 -117 23.5 -188.5t78.5 -104t109.5 -42t150.5 -9.5q158 0 414 56v-156q-227 -55 -418 -55q-98 0 -168.5 9t-145.5 38.5t-120 84t-73.5 148.5t-28.5 225zM287 1126v181h168v-181h-168zM293 621 h625q-1 243 -304 243q-170 0 -238.5 -62.5t-82.5 -180.5zM737 1126v181h170v-181h-170z" />
<glyph unicode="&#xec;" horiz-adv-x="489" d="M-72 1364h228l178 -238h-174zM154 0v1004h182v-1004h-182z" />
<glyph unicode="&#xed;" horiz-adv-x="489" d="M150 1126l178 238h227l-231 -238h-174zM154 0v1004h182v-1004h-182z" />
<glyph unicode="&#xee;" horiz-adv-x="489" d="M-39 1124l168 240h217l168 -240h-143l-131 150l-134 -150h-145zM154 0v1004h182v-1004h-182z" />
<glyph unicode="&#xef;" horiz-adv-x="489" d="M8 1124v181h170v-181h-170zM154 0v1004h182v-1004h-182zM309 1124v181h170v-181h-170z" />
<glyph unicode="&#xf0;" horiz-adv-x="1230" d="M109 444q0 217 114.5 325t362.5 108q154 0 336 -39q-23 154 -103 252l-65 -66h-181l136 150q-94 47 -230 47q-121 0 -266 -35v153q143 37 285 37q180 0 321 -78q6 6 28.5 30t33.5 36h221l-164 -158q180 -180 180 -592q0 -348 -131 -489t-393 -141q-258 0 -371.5 118.5 t-113.5 341.5zM287 444q0 -158 67.5 -231.5t241.5 -73.5q195 0 267.5 107.5t72.5 367.5q0 12 -1 40t-1 42q-156 35 -320 35q-182 0 -254.5 -67.5t-72.5 -219.5z" />
<glyph unicode="&#xf1;" d="M154 0v1004h168l4 -60q231 76 397 76q260 0 340 -186q39 -86 39 -277v-557h-182v541q0 152 -31 221q-51 102 -215 102q-137 0 -338 -65v-799h-182zM351 1133v32q0 109 31.5 152t103.5 43q63 0 162 -53l26 -15q53 -27 72 -26q33 0 35 67v27h123v-33q0 -106 -32 -150 t-104 -44q-63 0 -161 53l-27 14q-53 27 -72 27q-33 0 -35 -68v-26h-122z" />
<glyph unicode="&#xf2;" horiz-adv-x="1292" d="M109 502q0 293 114.5 405.5t421.5 112.5t422 -112.5t115 -405.5t-115 -405.5t-422 -112.5t-421.5 112.5t-114.5 405.5zM291 502q0 -215 67.5 -289t286.5 -74t286.5 74t67.5 289t-67.5 288.5t-286.5 73.5t-286.5 -73.5t-67.5 -288.5zM352 1364h228l178 -238h-174z" />
<glyph unicode="&#xf3;" horiz-adv-x="1292" d="M109 502q0 293 114.5 405.5t421.5 112.5t422 -112.5t115 -405.5t-115 -405.5t-422 -112.5t-421.5 112.5t-114.5 405.5zM291 502q0 -215 67.5 -289t286.5 -74t286.5 74t67.5 289t-67.5 288.5t-286.5 73.5t-286.5 -73.5t-67.5 -288.5zM526 1126l179 238h227l-232 -238h-174 z" />
<glyph unicode="&#xf4;" horiz-adv-x="1292" d="M109 502q0 293 114.5 405.5t421.5 112.5t422 -112.5t115 -405.5t-115 -405.5t-422 -112.5t-421.5 112.5t-114.5 405.5zM291 502q0 -215 67.5 -289t286.5 -74t286.5 74t67.5 289t-67.5 288.5t-286.5 73.5t-286.5 -73.5t-67.5 -288.5zM367 1124l168 240h217l168 -240h-144 l-131 150l-133 -150h-145z" />
<glyph unicode="&#xf5;" horiz-adv-x="1292" d="M109 502q0 293 114.5 405.5t421.5 112.5t422 -112.5t115 -405.5t-115 -405.5t-422 -112.5t-421.5 112.5t-114.5 405.5zM291 502q0 -215 67.5 -289t286.5 -74t286.5 74t67.5 289t-67.5 288.5t-286.5 73.5t-286.5 -73.5t-67.5 -288.5zM371 1133v32q0 109 31.5 152t103.5 43 q63 0 162 -53l26 -15q53 -27 72 -26q33 0 35 67v27h123v-33q0 -106 -32 -150t-104 -44q-63 0 -161 53l-27 14q-53 27 -72 27q-33 0 -34 -68v-26h-123z" />
<glyph unicode="&#xf6;" horiz-adv-x="1292" d="M109 502q0 293 114.5 405.5t421.5 112.5t422 -112.5t115 -405.5t-115 -405.5t-422 -112.5t-421.5 112.5t-114.5 405.5zM291 502q0 -215 67.5 -289t286.5 -74t286.5 74t67.5 289t-67.5 288.5t-286.5 73.5t-286.5 -73.5t-67.5 -288.5zM334 1126v181h168v-181h-168z M784 1126v181h170v-181h-170z" />
<glyph unicode="&#xf7;" horiz-adv-x="1300" d="M143 451v151h1012v-151h-1012zM561 0v170h174v-170h-174zM561 883v172h174v-172h-174z" />
<glyph unicode="&#xf8;" horiz-adv-x="1290" d="M109 76l73 69q-74 113 -73 357q0 293 114.5 405.5t421.5 112.5q254 0 369 -72l76 72l92 -92l-74 -72q74 -111 74 -354q0 -293 -115 -405.5t-422 -112.5q-254 0 -371 71l-73 -71zM291 502q0 -150 28 -228l568 549q-76 41 -242 41q-219 0 -286.5 -73.5t-67.5 -288.5z M401 180q76 -41 244 -41q219 0 286.5 74t67.5 289q0 158 -28 225z" />
<glyph unicode="&#xf9;" d="M154 446v558h182v-541q0 -152 31 -223q51 -102 215 -103q135 0 338 62v805h182v-1004h-168l-4 59q-231 -76 -398 -75q-260 0 -339 186q-39 86 -39 276zM328 1364h227l178 -238h-174z" />
<glyph unicode="&#xfa;" d="M154 446v558h182v-541q0 -152 31 -223q51 -102 215 -103q135 0 338 62v805h182v-1004h-168l-4 59q-231 -76 -398 -75q-260 0 -339 186q-39 86 -39 276zM504 1126l178 238h227l-231 -238h-174z" />
<glyph unicode="&#xfb;" d="M154 446v558h182v-541q0 -152 31 -223q51 -102 215 -103q135 0 338 62v805h182v-1004h-168l-4 59q-231 -76 -398 -75q-260 0 -339 186q-39 86 -39 276zM345 1124l167 240h218l168 -240h-144l-131 150l-133 -150h-145z" />
<glyph unicode="&#xfc;" d="M154 446v558h182v-541q0 -152 31 -223q51 -102 215 -103q135 0 338 62v805h182v-1004h-168l-4 59q-231 -76 -398 -75q-260 0 -339 186q-39 86 -39 276zM317 1126v181h168v-181h-168zM768 1126v181h170v-181h-170z" />
<glyph unicode="&#xfd;" horiz-adv-x="1181" d="M41 1004h201l362 -857l344 857h201l-449 -1049q-74 -170 -155.5 -235.5t-216.5 -65.5q-78 0 -181 18v156q105 -18 168 -18q82 0 122 29.5t73 101.5l27 59h-68zM494 1126l178 238h227l-231 -238h-174z" />
<glyph unicode="&#xfe;" d="M154 -346v1710h182v-418q199 74 375 74q238 0 338 -127t100 -375v-26q0 -508 -465 -508q-172 0 -348 36v-366h-182zM336 176q180 -39 315 -39q172 0 244 86t72 269v26q0 176 -62.5 261t-236.5 85q-135 0 -332 -65v-623z" />
<glyph unicode="&#xff;" horiz-adv-x="1181" d="M41 1004h201l362 -857l344 857h201l-449 -1049q-74 -170 -155.5 -235.5t-216.5 -65.5q-78 0 -181 18v156q105 -18 168 -18q82 0 122 29.5t73 101.5l27 59h-68zM287 1126v181h168v-181h-168zM737 1126v181h170v-181h-170z" />
<glyph unicode="&#x152;" horiz-adv-x="2430" d="M123 680q0 203 29.5 331t109.5 216t216 125t351 37q213 0 402 -48v23h1081v-160h-889v-440h729v-160h-729v-444h889v-160h-1081v20q-180 -45 -402 -45q-215 0 -351 36t-216 124t-109.5 215t-29.5 330zM319 680q0 -141 12.5 -228t42 -154t90 -99.5t147 -48t223.5 -15.5 q225 0 397 43v1006q-193 45 -397 45q-170 0 -267.5 -21.5t-155 -88t-75 -165t-17.5 -274.5z" />
<glyph unicode="&#x153;" horiz-adv-x="2095" d="M109 502q0 291 112.5 404.5t407.5 113.5q190 0 301.5 -44t165.5 -147q106 191 403 191q262 0 378 -116t116 -384v-37h-819q0 -117 23.5 -188.5t78.5 -104t109.5 -42t150.5 -9.5q158 0 414 56v-156q-242 -55 -416 -55q-166 0 -277.5 38.5t-171.5 153.5 q-49 -102 -156.5 -147t-299.5 -45q-297 0 -408.5 112.5t-111.5 405.5zM291 502q0 -215 67.5 -289t286.5 -74t287.5 74t68.5 289t-68.5 288.5t-287.5 73.5t-286.5 -73.5t-67.5 -288.5zM1180 621h624q0 243 -303 243q-170 0 -238.5 -62.5t-82.5 -180.5z" />
<glyph unicode="&#x178;" horiz-adv-x="1505" d="M31 1364h243l480 -635l491 635h230l-631 -801v-563h-193v563zM432 1487v180h168v-180h-168zM903 1487v180h170v-180h-170z" />
<glyph unicode="&#x2c6;" horiz-adv-x="772" d="M109 1124l167 240h218l168 -240h-144l-131 150l-133 -150h-145z" />
<glyph unicode="&#x2dc;" horiz-adv-x="772" d="M109 1133v32q0 109 31.5 152t103.5 43q63 0 162 -53l26 -15q53 -27 72 -26q33 0 35 67v27h123v-33q0 -106 -32 -150t-104 -44q-63 0 -161 53l-27 14q-53 27 -72 27q-33 0 -35 -68v-26h-122z" />
<glyph unicode="&#x2000;" horiz-adv-x="900" />
<glyph unicode="&#x2001;" horiz-adv-x="1800" />
<glyph unicode="&#x2002;" horiz-adv-x="900" />
<glyph unicode="&#x2003;" horiz-adv-x="1800" />
<glyph unicode="&#x2004;" horiz-adv-x="600" />
<glyph unicode="&#x2005;" horiz-adv-x="450" />
<glyph unicode="&#x2006;" horiz-adv-x="300" />
<glyph unicode="&#x2007;" horiz-adv-x="300" />
<glyph unicode="&#x2008;" horiz-adv-x="225" />
<glyph unicode="&#x2009;" horiz-adv-x="360" />
<glyph unicode="&#x200a;" horiz-adv-x="100" />
<glyph unicode="&#x2010;" horiz-adv-x="839" d="M176 451v167h488v-167h-488z" />
<glyph unicode="&#x2011;" horiz-adv-x="839" d="M176 451v167h488v-167h-488z" />
<glyph unicode="&#x2012;" horiz-adv-x="839" d="M176 451v167h488v-167h-488z" />
<glyph unicode="&#x2013;" horiz-adv-x="1300" d="M133 451v151h1034v-151h-1034z" />
<glyph unicode="&#x2014;" horiz-adv-x="2048" d="M133 451v151h1782v-151h-1782z" />
<glyph unicode="&#x2018;" horiz-adv-x="481" d="M113 854l106 510h150l-70 -510h-186z" />
<glyph unicode="&#x2019;" horiz-adv-x="481" d="M113 854l69 510h187l-107 -510h-149z" />
<glyph unicode="&#x201a;" horiz-adv-x="481" d="M111 -295l69 510h187l-107 -510h-149z" />
<glyph unicode="&#x201c;" horiz-adv-x="907" d="M152 854l106 510h150l-70 -510h-186zM496 854l106 510h150l-70 -510h-186z" />
<glyph unicode="&#x201d;" horiz-adv-x="907" d="M154 854l69 510h187l-107 -510h-149zM498 854l69 510h187l-107 -510h-149z" />
<glyph unicode="&#x201e;" horiz-adv-x="870" d="M111 -295l69 510h187l-107 -510h-149zM494 -295l69 510h187l-107 -510h-149z" />
<glyph unicode="&#x2022;" horiz-adv-x="1112" d="M207 616.5q0 182.5 77.5 263.5t270.5 81q195 0 272.5 -81t77.5 -264q0 -184 -77.5 -265t-272.5 -81q-193 0 -270.5 82t-77.5 264.5z" />
<glyph unicode="&#x2026;" horiz-adv-x="2048" d="M229 0v219h226v-219h-226zM911 0v219h226v-219h-226zM1593 0v219h226v-219h-226z" />
<glyph unicode="&#x202f;" horiz-adv-x="360" />
<glyph unicode="&#x2039;" horiz-adv-x="763" d="M125 514l313 381h191l-310 -381l306 -383h-187z" />
<glyph unicode="&#x203a;" horiz-adv-x="763" d="M133 895h193l313 -381l-313 -383h-187l305 383z" />
<glyph unicode="&#x205f;" horiz-adv-x="450" />
<glyph unicode="&#x20ac;" horiz-adv-x="1265" d="M82 451v139h149v174h-147v139h158q29 276 157.5 381t423.5 105q213 0 359 -41v-154q-178 39 -385 39q-197 0 -278 -69.5t-99 -260.5h526v-139h-534v-174h534v-139h-526q18 -186 99 -253t278 -67q221 0 385 39v-156q-150 -39 -359 -39q-295 0 -423 101.5t-158 374.5h-160z " />
<glyph unicode="&#x2122;" horiz-adv-x="1964" d="M117 1251v113h682v-113h-279v-637h-127v637h-276zM911 614v750h205l273 -614l266 614h203v-750h-125v637l-285 -637h-127l-287 641v-641h-123z" />
<glyph unicode="&#x25fc;" horiz-adv-x="1003" d="M0 0v1004h1004v-1004h-1004z" />
<glyph unicode="&#xfb01;" horiz-adv-x="1386" d="M78 854v150h188v69q0 174 81 237.5t255 63.5q96 0 219 -18v-148q-106 14 -211 15q-96 0 -130 -33t-34 -127v-59h375v-150h-375v-854h-180v854h-188zM1051 0v1004h182v-1004h-182zM1051 1184v180h182v-180h-182z" />
<glyph unicode="&#xfb02;" horiz-adv-x="1386" d="M78 854v150h188v69q0 174 81 237.5t255 63.5q96 0 219 -18v-148q-106 14 -211 15q-96 0 -130 -33t-34 -127v-59h375v-150h-375v-854h-180v854h-188zM1051 0v1364h182v-1364h-182z" />
</font>
</defs>
</svg>
